<?xml version="1.0" encoding="UTF-8" standalone="no" ?>
<!DOCTYPE svg PUBLIC "-//W3C//DTD SVG 1.1//EN" "http://www.w3.org/Graphics/SVG/1.1/DTD/svg11.dtd">
<svg xmlns="http://www.w3.org/2000/svg" xmlns:xlink="http://www.w3.org/1999/xlink" version="1.1" width="32" height="26" viewBox="0 0 32 26" xml:space="preserve">
<desc>Created with Fabric.js 5.2.4</desc>
<defs>
</defs>
<g transform="matrix(1 0 0 1 16 13)" id="342cd263-80dc-45cc-ad4f-23475af8199e"  >
<rect style="stroke: none; stroke-width: 1; stroke-dasharray: none; stroke-linecap: butt; stroke-dashoffset: 0; stroke-linejoin: miter; stroke-miterlimit: 4; fill: rgb(255,255,255); fill-rule: nonzero; opacity: 1; visibility: hidden;" vector-effect="non-scaling-stroke"  x="-16" y="-13" rx="0" ry="0" width="32" height="26" />
</g>
<g transform="matrix(Infinity NaN NaN Infinity 0 0)" id="57bba0e6-6f0e-4455-8725-19fd42e9d39c"  >
</g>
<g transform="matrix(0.02 0 0 0.02 16 13)"  >
<g style="" vector-effect="non-scaling-stroke"   >
		<g transform="matrix(27.54 0 0 27.54 0 0)" id="text-0"  >
<path style="stroke: none; stroke-width: 1; stroke-dasharray: none; stroke-linecap: butt; stroke-dashoffset: 0; stroke-linejoin: miter; stroke-miterlimit: 4; fill: rgb(0,0,0); fill-rule: nonzero; opacity: 1;" vector-effect="non-scaling-stroke"  transform=" translate(-20, 14)" d="M 17.2 -26 Q 17.2 -24.85 17 -24 L 17 -24 L 14 -24 Q 14.2 -23.2 14.2 -22 L 14.2 -22 Q 14.2 -20.85 14 -20 L 14 -20 Q 14.2 -19.2 14.2 -18 L 14.2 -18 Q 14.2 -16.85 14 -16 L 14 -16 Q 14.2 -15.2 14.2 -14 L 14.2 -14 Q 14.2 -12.85 14 -12 L 14 -12 Q 14.2 -11.2 14.2 -10 L 14.2 -10 Q 14.2 -8.85 14 -8 L 14 -8 Q 14.2 -7.2 14.2 -6 L 14.2 -6 Q 14.2 -4.85 14 -4 L 14 -4 L 12 -4 Q 12.2 -3.2 12.2 -2 L 12.2 -2 Q 12.2 -0.85 12 0 L 12 0 L 4 0 Q 3.8 -0.85 3.8 -2 L 3.8 -2 Q 3.8 -3.2 4 -4 L 4 -4 L 2 -4 Q 1.8 -4.85 1.8 -6 L 1.8 -6 Q 1.8 -7.2 2 -8 L 2 -8 L 6 -8 Q 6.2 -7.2 6.2 -6 L 6.2 -6 Q 6.2 -4.85 6 -4 L 6 -4 L 10 -4 Q 9.8 -4.85 9.8 -6 L 9.8 -6 Q 9.8 -7.2 10 -8 L 10 -8 Q 9.8 -8.85 9.8 -10 L 9.8 -10 Q 9.8 -11.2 10 -12 L 10 -12 Q 9.8 -12.85 9.8 -14 L 9.8 -14 Q 9.8 -15.2 10 -16 L 10 -16 Q 9.8 -16.85 9.8 -18 L 9.8 -18 Q 9.8 -19.2 10 -20 L 10 -20 Q 9.8 -20.85 9.8 -22 L 9.8 -22 Q 9.8 -23.2 10 -24 L 10 -24 L 7 -24 Q 6.8 -24.85 6.8 -26 L 6.8 -26 Q 6.8 -27.2 7 -28 L 7 -28 L 17 -28 Q 17.2 -27.2 17.2 -26 L 17.2 -26 Z M 38.2 -22 Q 38.2 -20.85 38 -20 L 38 -20 Q 38.2 -19.2 38.2 -18 L 38.2 -18 Q 38.2 -16.85 38 -16 L 38 -16 L 36 -16 Q 36.2 -15.2 36.2 -14 L 36.2 -14 Q 36.2 -12.85 36 -12 L 36 -12 L 26 -12 Q 26.2 -11.2 26.2 -10 L 26.2 -10 Q 26.2 -8.85 26 -8 L 26 -8 Q 26.2 -7.2 26.2 -6 L 26.2 -6 Q 26.2 -4.85 26 -4 L 26 -4 Q 26.2 -3.2 26.2 -2 L 26.2 -2 Q 26.2 -0.85 26 0 L 26 0 L 22 0 Q 21.8 -0.85 21.8 -2 L 21.8 -2 Q 21.8 -3.2 22 -4 L 22 -4 Q 21.8 -4.85 21.8 -6 L 21.8 -6 Q 21.8 -7.2 22 -8 L 22 -8 Q 21.8 -8.85 21.8 -10 L 21.8 -10 Q 21.8 -11.2 22 -12 L 22 -12 Q 21.8 -12.85 21.8 -14 L 21.8 -14 Q 21.8 -15.2 22 -16 L 22 -16 Q 21.8 -16.85 21.8 -18 L 21.8 -18 Q 21.8 -19.2 22 -20 L 22 -20 Q 21.8 -20.85 21.8 -22 L 21.8 -22 Q 21.8 -23.2 22 -24 L 22 -24 Q 21.8 -24.85 21.8 -26 L 21.8 -26 Q 21.8 -27.2 22 -28 L 22 -28 L 36 -28 Q 36.2 -27.2 36.2 -26 L 36.2 -26 Q 36.2 -24.85 36 -24 L 36 -24 L 38 -24 Q 38.2 -23.2 38.2 -22 L 38.2 -22 Z M 34 -16 Q 33.8 -16.85 33.8 -18 L 33.8 -18 Q 33.8 -19.2 34 -20 L 34 -20 Q 33.8 -20.85 33.8 -22 L 33.8 -22 Q 33.8 -23.2 34 -24 L 34 -24 L 26 -24 Q 26.2 -23.2 26.2 -22 L 26.2 -22 Q 26.2 -20.85 26 -20 L 26 -20 Q 26.2 -19.2 26.2 -18 L 26.2 -18 Q 26.2 -16.85 26 -16 L 26 -16 L 34 -16 Z" stroke-linecap="round" />
</g>
		<g transform="matrix(5.05 0 0 5.05 -204.96 0)"  >
<path style="stroke: rgb(255,255,255); stroke-opacity: 0; stroke-width: 1; stroke-dasharray: none; stroke-linecap: butt; stroke-dashoffset: 0; stroke-linejoin: miter; stroke-miterlimit: 4; fill: rgb(0,0,0); fill-rule: nonzero; opacity: 1;" vector-effect="non-scaling-stroke"  transform=" translate(-157.16, -123.6)" d="M 280.761 41.215 L 280.761 0 L 33.561 0 L 33.561 247.2 L 280.761 247.2 L 280.761 205.985 L 266.984 205.985 L 266.984 233.423 L 47.338 233.423 L 47.338 13.777 L 266.984 13.777 L 266.984 41.215 Z" stroke-linecap="round" />
</g>
		<g transform="matrix(5.05 0 0 5.05 0 0)"  >
<rect style="stroke: none; stroke-width: 1; stroke-dasharray: none; stroke-linecap: butt; stroke-dashoffset: 0; stroke-linejoin: miter; stroke-miterlimit: 4; fill: none; fill-rule: nonzero; opacity: 1;" vector-effect="non-scaling-stroke"  x="-197.76" y="-123.6" rx="0" ry="0" width="395.52" height="247.2" />
</g>
</g>
</g>
</svg>